#N canvas 620 78 589 446 10;
#N canvas 0 22 1030 664 filters 0;
#N canvas 0 22 454 304 (subpatch) 0;
#X array display-05 110 float 0;
#X coords 0 2 109 -2 200 140 1;
#X restore 333 158 graph;
#X obj 227 159 vsl 40 128 0 127 0 0 empty 4.cutoff-r Cutoff 2 120 0
10 -262144 -1 -1 0 1;
#X obj 280 159 vsl 40 128 0 127 0 0 empty 4.resonance-r Reso 6 120
0 11 -262144 -1 -1 0 1;
#X obj 227 301 s 4.cutoff;
#N canvas 208 103 619 615 oscillators 0;
#X obj 84 191 mtof;
#X obj 163 329 blosc~ saw;
#X obj 204 559 outlet~;
#X obj 272 328 phasor~;
#X obj 272 385 blosc~ comparator;
#X obj 272 357 -~ 0.5;
#X obj 163 392 *~;
#X obj 272 437 *~;
#X obj 163 289 +~;
#X obj 419 331 noise~;
#X obj 419 424 *~;
#X obj 87 82 inlet note;
#X obj 285 242 unpack f f f;
#X obj 287 73 r 4.waveform;
#X obj 287 131 sel 0 1 2;
#X msg 284 164 1 0 0;
#X msg 334 164 0 1 0;
#X msg 384 164 0 0 1;
#X obj 287 102 t f b;
#X obj 370 131 s graphit;
#X obj 85 138 t f b;
#X obj 168 167 s graphit;
#X connect 0 0 8 0;
#X connect 1 0 6 0;
#X connect 3 0 5 0;
#X connect 4 0 7 0;
#X connect 5 0 4 0;
#X connect 6 0 2 0;
#X connect 7 0 2 0;
#X connect 8 0 3 0;
#X connect 8 0 1 0;
#X connect 9 0 10 0;
#X connect 10 0 2 0;
#X connect 11 0 20 0;
#X connect 12 0 6 1;
#X connect 12 1 7 1;
#X connect 12 2 10 1;
#X connect 13 0 18 0;
#X connect 14 0 15 0;
#X connect 14 1 16 0;
#X connect 14 2 17 0;
#X connect 15 0 12 0;
#X connect 16 0 12 0;
#X connect 17 0 12 0;
#X connect 18 0 14 0;
#X connect 18 1 19 0;
#X connect 20 0 0 0;
#X connect 20 1 21 0;
#X restore 849 195 pd oscillators;
#X obj 110 130 nbx 4 20 0 1e+37 0 0 empty 4.note-r Note 75 11 0 16
-262144 -1 -1 60 256;
#N canvas 181 103 665 616 filters 0;
#X obj 214 569 outlet~;
#X obj 212 522 *~;
#X obj 255 535 *~;
#X obj 233 425 sel 0 1 2;
#X obj 233 357 r 4.filter;
#X obj 140 104 inlet~;
#X obj 163 378 moog~;
#X obj 190 129 r 4.cutoff;
#X obj 188 272 line~;
#X obj 188 222 mtof;
#X msg 188 246 \$1 50;
#X obj 260 270 line~;
#X msg 260 244 \$1 50;
#X obj 260 220 expr pow($f1/127 \, 2)*4;
#X obj 368 408 hp1~ 440 200;
#X msg 233 452 1 0 0;
#X msg 283 452 0 1 0;
#X msg 333 452 0 0 1;
#X obj 132 513 *~;
#X obj 233 480 unpack f f f;
#X obj 260 160 t f b;
#X obj 287 182 s graphit;
#X obj 260 135 r 4.resonance;
#X obj 203 184 s graphit;
#X obj 190 156 t f b;
#X obj 233 378 t f b;
#X obj 260 400 s graphit;
#X connect 1 0 0 0;
#X connect 2 0 0 0;
#X connect 3 0 15 0;
#X connect 3 1 16 0;
#X connect 3 2 17 0;
#X connect 4 0 25 0;
#X connect 5 0 6 0;
#X connect 5 0 14 0;
#X connect 5 0 18 0;
#X connect 6 0 1 0;
#X connect 7 0 24 0;
#X connect 8 0 6 1;
#X connect 9 0 10 0;
#X connect 9 0 14 1;
#X connect 10 0 8 0;
#X connect 11 0 6 2;
#X connect 12 0 11 0;
#X connect 13 0 12 0;
#X connect 14 0 2 0;
#X connect 15 0 19 0;
#X connect 16 0 19 0;
#X connect 17 0 19 0;
#X connect 18 0 0 0;
#X connect 19 0 18 1;
#X connect 19 1 1 1;
#X connect 19 2 2 1;
#X connect 20 0 13 0;
#X connect 20 1 21 0;
#X connect 22 0 20 0;
#X connect 24 0 9 0;
#X connect 24 1 23 0;
#X connect 25 0 3 0;
#X connect 25 1 26 0;
#X restore 849 239 pd filters;
#X obj 280 321 s 4.resonance;
#X obj 787 339 r graphit;
#X obj 788 363 tabwrite~ display-05;
#X obj 832 480 outlet~;
#X obj 110 157 cnv 15 100 80 empty empty Waveform 6 12 0 18 -233017
-1 0;
#X obj 118 182 vradio 15 1 0 3 4.waveform 4.waveform-set empty 0 -6
0 8 -262144 -1 -1 0;
#X text 135 212 noise;
#X obj 118 234 s 4.waveform;
#X text 135 182 sawtooth;
#X text 135 197 square;
#X obj 111 247 cnv 15 100 80 empty empty Filters 6 12 0 18 -233017
-1 0;
#X obj 119 272 vradio 15 1 0 3 4.filter 4.filter-set empty 0 -6 0 8
-262144 -1 -1 0;
#X text 136 272 off;
#X text 135 287 lowpass;
#X text 136 301 highpass;
#X obj 119 337 s 4.filter;
#X obj 488 420 loadbang;
#X msg 488 454 \; pd dsp 1 \; 4.note-r 60 \; 4.filter-set 0 \; 4.waveform-set
0 \; 4.cutoff-r 0 \; 4.resonance-r 0;
#X connect 1 0 3 0;
#X connect 2 0 7 0;
#X connect 4 0 6 0;
#X connect 5 0 4 0;
#X connect 6 0 9 0;
#X connect 6 0 10 0;
#X connect 8 0 9 0;
#X connect 12 0 14 0;
#X connect 18 0 22 0;
#X connect 23 0 24 0;
#X coords 0 -1 1 1 450 240 1 100 100;
#X restore 94 82 pd filters brainz;
#X obj 99 37 cnv 15 15 15 empty empty Let's_have_filter_fun! 4 12 0
18 -262144 -66577 0;
#X obj 94 335 s-out~ /out;
#X connect 0 0 2 0;
