#N canvas 161 89 1016 506 10;
#X obj 59 47 cnv 15 15 15 empty empty Let's_build_a_polysynth! 4 12
0 18 -262144 -66577 0;
#X obj 60 87 s-randomnotes;
#X obj 443 150 metronome /m 4 4;
#X obj 208 89 s-midiin 1;
#X obj 60 149 many /lots;
#X obj 60 352 s-out~ /out;
#X obj 371 13 s-keykey;
#X connect 1 0 4 0;
#X connect 3 0 4 0;
#X connect 4 0 5 0;
#X connect 6 0 4 0;
