#N canvas 770 134 520 528 10;
#X obj 78 29 loadbang;
#X obj 78 55 t b b;
#X obj 175 306 symbol \$1;
#X obj 78 336 pack f s;
#X msg 78 167 3;
#X msg 115 167 6;
#X msg 148 167 8;
#X msg 181 167 14;
#X msg 215 167 15;
#X msg 252 167 16;
#X msg 292 167 17;
#X msg 332 167 19;
#X msg 376 167 5;
#X msg 78 369 \; \$2 color \$1 22;
#X obj 78 85 random 9;
#X obj 78 113 sel 0 1 2 3 4 5 6 7 8;
#X connect 0 0 1 0;
#X connect 1 0 14 0;
#X connect 1 1 2 0;
#X connect 2 0 3 1;
#X connect 3 0 13 0;
#X connect 4 0 3 0;
#X connect 5 0 3 0;
#X connect 6 0 3 0;
#X connect 7 0 3 0;
#X connect 8 0 3 0;
#X connect 9 0 3 0;
#X connect 10 0 3 0;
#X connect 11 0 3 0;
#X connect 12 0 3 0;
#X connect 14 0 15 0;
#X connect 15 0 4 0;
#X connect 15 1 5 0;
#X connect 15 2 6 0;
#X connect 15 3 7 0;
#X connect 15 4 8 0;
#X connect 15 5 9 0;
#X connect 15 6 10 0;
#X connect 15 7 11 0;
#X connect 15 8 12 0;
