#N canvas 400 123 800 622 10;
#X obj 309 33 inlet trigger;
#X obj 315 459 vline~;
#X obj 315 496 expr~ pow($v1 \, 2);
#X obj 356 303 pack f f f;
#X obj 356 169 f;
#X obj 309 78 sel 0;
#X obj 336 101 b;
#X msg 146 321 0 \$1;
#X obj 146 294 f;
#X obj 413 278 / 127;
#X obj 384 224 expr pow($f1/127 \, 2)*8000;
#X obj 374 123 expr pow($f1/127 \, 2)*8000;
#X obj 315 535 outlet~;
#X obj 374 99 r \$1/a;
#X obj 194 232 r \$1/r;
#X obj 384 197 r \$1/d;
#X obj 413 254 r \$1/s;
#X msg 356 331 0 0 \, 1 \$1 0 \, \$3 \$2 \$1;
#X obj 194 255 expr pow($f1/127 \, 2)*8000;
#X connect 0 0 5 0;
#X connect 1 0 2 0;
#X connect 2 0 12 0;
#X connect 3 0 17 0;
#X connect 4 0 3 0;
#X connect 5 0 8 0;
#X connect 5 1 6 0;
#X connect 6 0 4 0;
#X connect 7 0 1 0;
#X connect 8 0 7 0;
#X connect 9 0 3 2;
#X connect 10 0 3 1;
#X connect 11 0 4 1;
#X connect 13 0 11 0;
#X connect 14 0 18 0;
#X connect 15 0 10 0;
#X connect 16 0 9 0;
#X connect 17 0 1 0;
#X connect 18 0 8 1;
