#N canvas 266 82 933 637 10;
#X obj 153 212 mtof;
#X obj 114 31 inlet;
#X obj 173 339 blosc~ saw;
#X obj 214 569 outlet~;
#X obj 188 376 r \$1/saw-on;
#X obj 297 421 r \$1/square-on;
#X obj 282 338 phasor~;
#X obj 282 395 blosc~ comparator;
#X obj 282 367 -~ 0.5;
#X obj 173 402 *~;
#X obj 282 447 *~;
#X obj 337 311 / 254;
#X obj 337 337 + 0.5;
#X obj 238 135 inlet~ lfo;
#X obj 238 214 *~;
#X obj 313 137 r \$1/lfo-osc;
#X obj 173 299 +~;
#X obj 313 167 expr pow($f1/127 \, 2)*200;
#X obj 114 150 route 0;
#X msg 114 127 \$2 \$1;
#X msg 153 183 \$2;
#X obj 114 59 t l b;
#X obj 238 244 *~;
#X obj 519 24 r \$1/lfo-del;
#X obj 504 134 f;
#X obj 504 222 vline~;
#X obj 519 92 expr pow($f1/127 \, 2)*2000;
#X obj 519 56 t f f;
#X obj 504 163 pack f f;
#X msg 504 187 0 0 \, 1 \$2 \$1;
#X obj 660 301 noise~;
#X obj 737 270 r \$1/noise;
#X obj 660 394 *~;
#X obj 737 360 line~;
#X msg 737 331 \$1 20;
#X obj 737 302 expr pow($f1/127 \, 2);
#X obj 337 282 r \$1/pwm;
#X connect 0 0 16 0;
#X connect 1 0 21 0;
#X connect 2 0 9 0;
#X connect 4 0 9 1;
#X connect 5 0 10 1;
#X connect 6 0 8 0;
#X connect 7 0 10 0;
#X connect 8 0 7 0;
#X connect 9 0 3 0;
#X connect 10 0 3 0;
#X connect 11 0 12 0;
#X connect 12 0 8 1;
#X connect 13 0 14 0;
#X connect 14 0 22 0;
#X connect 15 0 17 0;
#X connect 16 0 6 0;
#X connect 16 0 2 0;
#X connect 17 0 14 1;
#X connect 18 1 20 0;
#X connect 19 0 18 0;
#X connect 20 0 0 0;
#X connect 21 0 19 0;
#X connect 21 1 24 0;
#X connect 22 0 16 1;
#X connect 23 0 27 0;
#X connect 24 0 28 0;
#X connect 25 0 22 1;
#X connect 26 0 24 1;
#X connect 27 0 26 0;
#X connect 27 1 28 1;
#X connect 28 0 29 0;
#X connect 29 0 25 0;
#X connect 30 0 32 0;
#X connect 31 0 35 0;
#X connect 32 0 3 0;
#X connect 33 0 32 1;
#X connect 34 0 33 0;
#X connect 35 0 34 0;
#X connect 36 0 11 0;
