#N canvas 199 204 492 318 10;
#X obj 281 56 r globalOSC;
#X obj 281 228 pack f f;
#X obj 281 116 OSCroute /beat /tick;
#X obj 281 86 OSCroute /rhythm;
#X obj 281 258 outlet;
#X obj 281 203 makenote 100 250;
#X obj 281 176 f 20;
#X floatatom 106 119 5 0 0 1 note - -;
#X obj 62 59 loadbang;
#X msg 62 89 20;
#X msg 281 148 bang;
#X connect 0 0 3 0;
#X connect 1 0 4 0;
#X connect 2 0 10 0;
#X connect 3 0 2 0;
#X connect 5 0 1 0;
#X connect 5 1 1 1;
#X connect 6 0 5 0;
#X connect 7 0 6 1;
#X connect 8 0 9 0;
#X connect 9 0 7 0;
#X connect 10 0 6 0;
#X coords 0 -1 1 1 85 40 1 100 100;
