#N canvas 509 97 647 494 10;
#X obj 81 51 inlet;
#X obj 81 384 outlet~;
#N canvas 63 22 1117 611 filter 0;
#X obj 56 30 inlet~;
#X obj 176 546 outlet~;
#X obj 176 509 moog~;
#X obj 282 12 inlet trigger;
#X obj 188 286 mtof;
#X obj 188 337 line~;
#X msg 188 311 \$1 20;
#X obj 308 428 line~;
#X msg 308 403 \$1 20;
#X obj 308 379 expr $f1/127*4;
#X obj 189 415 +~;
#X obj 495 85 r \$1/f-env;
#X obj 495 167 line~;
#X msg 495 141 \$1 20;
#X obj 388 223 *~;
#X obj 495 114 expr pow($f1/127 \, 2)*10000;
#X obj 210 45 r \$1/trk;
#X msg 282 70 \$2 \$1;
#X obj 282 95 route 0;
#X msg 321 118 \$2;
#X obj 188 261 +;
#X obj 201 234 t b f;
#X obj 210 84 / 127;
#X obj 280 182 *;
#X msg 388 85 \$2;
#X obj 602 161 inlet~ lfo;
#X obj 602 240 *~;
#X obj 943 63 r \$1/lfo-del;
#X obj 928 173 f;
#X obj 928 261 vline~;
#X obj 599 288 *~;
#X obj 677 163 r \$1/lfo-filt;
#X obj 943 131 expr pow($f1/127 \, 2)*2000;
#X obj 188 369 *~;
#X obj 531 319 expr~ pow(2 \, $v1);
#X obj 677 193 expr pow($f1/127 \, 2)*8;
#X obj 943 95 t f f;
#X obj 928 202 pack f f;
#X msg 928 226 0 0 \, 1 \$2 \$1;
#X obj 188 188 r \$1/cutoff;
#X obj 308 354 r \$1/resonance;
#X obj 388 114 d_env~ \$1/filt;
#X obj 280 154 t b f b;
#X obj 282 43 t l l;
#X connect 0 0 2 0;
#X connect 2 0 1 0;
#X connect 3 0 43 0;
#X connect 4 0 6 0;
#X connect 5 0 33 0;
#X connect 6 0 5 0;
#X connect 7 0 2 2;
#X connect 8 0 7 0;
#X connect 9 0 8 0;
#X connect 10 0 2 1;
#X connect 11 0 15 0;
#X connect 12 0 14 1;
#X connect 13 0 12 0;
#X connect 14 0 10 1;
#X connect 15 0 13 0;
#X connect 16 0 22 0;
#X connect 17 0 18 0;
#X connect 18 1 19 0;
#X connect 19 0 42 0;
#X connect 20 0 4 0;
#X connect 21 0 20 0;
#X connect 21 1 20 1;
#X connect 22 0 23 0;
#X connect 23 0 21 0;
#X connect 24 0 41 0;
#X connect 25 0 26 0;
#X connect 26 0 30 0;
#X connect 27 0 36 0;
#X connect 28 0 37 0;
#X connect 29 0 30 1;
#X connect 30 0 34 0;
#X connect 31 0 35 0;
#X connect 32 0 28 1;
#X connect 33 0 10 0;
#X connect 34 0 33 1;
#X connect 35 0 26 1;
#X connect 36 0 32 0;
#X connect 36 1 37 1;
#X connect 37 0 38 0;
#X connect 38 0 29 0;
#X connect 39 0 20 0;
#X connect 40 0 9 0;
#X connect 41 0 14 0;
#X connect 42 0 23 0;
#X connect 42 1 23 1;
#X connect 42 2 28 0;
#X connect 43 0 17 0;
#X connect 43 1 24 0;
#X restore 81 289 pd filter;
#N canvas 116 117 688 600 amp 0;
#X obj 103 63 inlet~;
#X obj 101 508 outlet~;
#X obj 371 72 inlet trigger;
#X msg 371 124 \$2;
#X obj 99 288 *~;
#X obj 371 153 d_env~ \$1/amp;
#X connect 0 0 4 0;
#X connect 2 0 3 0;
#X connect 3 0 5 0;
#X connect 4 0 1 0;
#X connect 5 0 4 1;
#X restore 81 343 pd amp;
#X obj 274 178 inlet~ lfo;
#X obj 81 172 t l l l;
#N canvas 0 22 919 624 oscillators 0;
#X obj 143 202 mtof;
#X obj 104 21 inlet;
#X obj 163 329 blosc~ saw;
#X obj 204 559 outlet~;
#X obj 178 366 r \$1/saw-on;
#X obj 287 411 r \$1/square-on;
#X obj 272 328 phasor~;
#X obj 272 385 blosc~ comparator;
#X obj 272 357 -~ 0.5;
#X obj 163 392 *~;
#X obj 272 437 *~;
#X obj 327 301 / 254;
#X obj 327 327 + 0.5;
#X obj 228 125 inlet~ lfo;
#X obj 228 204 *~;
#X obj 303 127 r \$1/lfo-osc;
#X obj 163 289 +~;
#X obj 303 157 expr pow($f1/127 \, 2)*200;
#X obj 104 70 route 0;
#X msg 104 47 \$2 \$1;
#X msg 143 173 \$2;
#X obj 228 234 *~;
#X obj 509 14 r \$1/lfo-del;
#X obj 494 124 f;
#X obj 494 212 vline~;
#X obj 509 82 expr pow($f1/127 \, 2)*2000;
#X obj 509 46 t f f;
#X obj 494 153 pack f f;
#X msg 494 177 0 0 \, 1 \$2 \$1;
#X obj 650 291 noise~;
#X obj 727 260 r \$1/noise;
#X obj 650 384 *~;
#X obj 727 350 line~;
#X msg 727 321 \$1 20;
#X obj 727 292 expr pow($f1/127 \, 2);
#X obj 327 272 r \$1/pwm;
#X obj 143 96 t l b;
#X connect 0 0 16 0;
#X connect 1 0 19 0;
#X connect 2 0 9 0;
#X connect 4 0 9 1;
#X connect 5 0 10 1;
#X connect 6 0 8 0;
#X connect 7 0 10 0;
#X connect 8 0 7 0;
#X connect 9 0 3 0;
#X connect 10 0 3 0;
#X connect 11 0 12 0;
#X connect 12 0 8 1;
#X connect 13 0 14 0;
#X connect 14 0 21 0;
#X connect 15 0 17 0;
#X connect 16 0 6 0;
#X connect 16 0 2 0;
#X connect 17 0 14 1;
#X connect 18 1 36 0;
#X connect 19 0 18 0;
#X connect 20 0 0 0;
#X connect 21 0 16 1;
#X connect 22 0 26 0;
#X connect 23 0 27 0;
#X connect 24 0 21 1;
#X connect 25 0 23 1;
#X connect 26 0 25 0;
#X connect 26 1 27 1;
#X connect 27 0 28 0;
#X connect 28 0 24 0;
#X connect 29 0 31 0;
#X connect 30 0 34 0;
#X connect 31 0 3 0;
#X connect 32 0 31 1;
#X connect 33 0 32 0;
#X connect 34 0 33 0;
#X connect 35 0 11 0;
#X connect 36 0 20 0;
#X connect 36 1 23 0;
#X restore 81 231 pd oscillators;
#X obj 81 84 unpack f f;
#X obj 81 131 pack f f;
#X obj 170 85 expr $f1*12-12;
#X obj 170 61 r \$1/octave;
#X obj 81 107 +;
#X connect 0 0 7 0;
#X connect 2 0 3 0;
#X connect 3 0 1 0;
#X connect 4 0 6 1;
#X connect 4 0 2 2;
#X connect 5 0 6 0;
#X connect 5 1 2 1;
#X connect 5 2 3 1;
#X connect 6 0 2 0;
#X connect 7 0 11 0;
#X connect 7 1 8 1;
#X connect 8 0 5 0;
#X connect 9 0 11 1;
#X connect 10 0 9 0;
#X connect 11 0 8 0;
