#N canvas 213 22 987 714 10;
#N canvas 258 68 817 412 OSC 0;
#X obj 87 114 OSCroute \$1;
#X obj 87 53 r sn_global;
#X obj 87 185 s \$1-go;
#X obj 138 215 s \$1-tempo;
#X obj 189 188 s \$1-ticks;
#X obj 240 215 s \$1-beats;
#X obj 329 216 sel tempo;
#X obj 329 348 s sn_global;
#X obj 400 217 r \$1-tempo;
#X obj 329 269 f;
#X obj 329 192 symbol;
#X obj 87 149 OSCroute /go /set_tempo /ticks /beats /canhas;
#X msg 329 293 /pulse/tempo \$1;
#X connect 0 0 11 0;
#X connect 1 0 0 0;
#X connect 6 0 9 0;
#X connect 8 0 9 0;
#X connect 9 0 12 0;
#X connect 10 0 6 0;
#X connect 11 0 2 0;
#X connect 11 1 3 0;
#X connect 11 2 4 0;
#X connect 11 3 5 0;
#X connect 11 4 10 0;
#X connect 12 0 7 0;
#X restore 102 279 pd OSC;
#X obj 481 208 sel 0 1;
#X msg 481 242 0;
#X obj 481 317 f;
#X obj 512 317 + 1;
#X obj 481 278 metro 250;
#X msg 556 277 0;
#N canvas 670 352 338 202 inits 0;
#X obj 51 36 loadbang;
#X obj 50 63 t b b b;
#X msg 39 96 120;
#X obj 126 100 \$2;
#X obj 183 99 \$3;
#X obj 39 131 s \$1/tempo-r;
#X obj 128 131 s \$1/beats-r;
#X obj 219 132 s \$1/ticks-r;
#X connect 0 0 1 0;
#X connect 1 0 2 0;
#X connect 1 1 3 0;
#X connect 1 2 4 0;
#X connect 2 0 5 0;
#X connect 3 0 6 0;
#X connect 4 0 7 0;
#X restore 101 316 pd inits;
#X obj 581 227 expr 60000/$f1/$f2;
#X obj 736 222 *;
#X obj 657 186 t b f b f;
#X obj 736 448 change;
#X obj 736 425 div 4;
#X obj 481 395 t f f;
#X obj 481 370 mod 16;
#X obj 736 187 t f f;
#X obj 736 483 t f f;
#X obj 763 539 f;
#X obj 795 540 + 1;
#X obj 763 512 sel 0;
#X obj 101 119 cnv 15 138 98 empty empty empty 20 12 0 14 -260097 -66577
0;
#X obj 110 159 nbx 3 15 -1e+37 1e+37 0 0 \$1/tempo \$1/tempo-r Tempo
45 8 0 11 -262144 -1 -1 120 256;
#X obj 110 179 nbx 3 15 -1e+37 1e+37 0 0 \$1/beats \$1/beats-r Beats
45 8 0 11 -262144 -1 -1 4 256;
#X obj 110 129 tgl 20 0 \$1/go \$1/go-r Go! 24 10 0 14 -257985 -1 -1
0 1;
#X obj 110 199 nbx 3 15 -1e+37 1e+37 0 0 \$1/ticks \$1/ticks-r Ticks
45 8 0 11 -262144 -1 -1 4 256;
#X obj 551 679 outlet bar;
#X obj 631 679 outlet beat;
#X obj 711 679 outlet tick;
#X obj 481 47 t f f;
#X msg 508 83 /rhythm/metronome-on \$1;
#X obj 518 241 t b b;
#X obj 481 16 r \$1/go;
#X obj 273 147 sssad/sssad \$1/tempo;
#X obj 273 167 sssad/sssad \$1/beats;
#X obj 273 187 sssad/sssad \$1/ticks;
#X obj 581 154 r \$1/tempo;
#X obj 657 155 r \$1/ticks;
#X obj 736 156 r \$1/beats;
#X obj 273 127 sssad/sssad \$1/go;
#X obj 175 480 f;
#X obj 139 411 metro 2000;
#X obj 139 387 loadbang;
#X msg 204 386 bang;
#X obj 175 447 r \$1/tempo;
#X obj 261 435 f;
#X msg 261 462 \; globalOSC /rhythm/ticklength \$1;
#X msg 175 507 \; globalOSC /rhythm/tempo \$1;
#X msg 481 470 \; globalOSC /rhythm/tick \$1;
#X msg 763 565 \; globalOSC /rhythm/bar \$1;
#X msg 736 610 \; globalOSC /rhythm/beat \$1;
#X obj 508 119 send globalOSC;
#X connect 1 0 2 0;
#X connect 1 1 30 0;
#X connect 2 0 5 0;
#X connect 3 0 14 0;
#X connect 4 0 3 1;
#X connect 5 0 3 0;
#X connect 6 0 3 1;
#X connect 6 0 17 1;
#X connect 8 0 5 1;
#X connect 8 0 44 0;
#X connect 9 0 14 1;
#X connect 10 0 8 0;
#X connect 10 1 8 1;
#X connect 10 2 9 0;
#X connect 10 3 9 1;
#X connect 11 0 16 0;
#X connect 12 0 11 0;
#X connect 13 0 47 0;
#X connect 13 0 27 0;
#X connect 13 1 12 0;
#X connect 14 0 4 0;
#X connect 14 0 13 0;
#X connect 15 0 9 0;
#X connect 15 1 12 1;
#X connect 16 0 49 0;
#X connect 16 0 26 0;
#X connect 16 1 19 0;
#X connect 17 0 18 0;
#X connect 17 0 48 0;
#X connect 17 0 25 0;
#X connect 18 0 17 1;
#X connect 19 0 17 0;
#X connect 21 0 32 1;
#X connect 22 0 33 1;
#X connect 23 0 38 1;
#X connect 24 0 34 1;
#X connect 28 0 1 0;
#X connect 28 1 29 0;
#X connect 29 0 50 0;
#X connect 30 0 5 0;
#X connect 30 1 6 0;
#X connect 31 0 28 0;
#X connect 32 0 21 0;
#X connect 33 0 22 0;
#X connect 34 0 24 0;
#X connect 35 0 8 0;
#X connect 36 0 10 0;
#X connect 37 0 15 0;
#X connect 38 0 23 0;
#X connect 39 0 46 0;
#X connect 40 0 39 0;
#X connect 40 0 44 0;
#X connect 41 0 40 0;
#X connect 42 0 40 0;
#X connect 43 0 39 0;
#X connect 44 0 45 0;
#X coords 0 -1 1 1 140 120 1 100 100;
