#N canvas 0 22 486 409 10;
#X obj 106 62 r globalOSC;
#X obj 106 122 OSCroute /beat /tick;
#X obj 106 92 OSCroute /rhythm;
#X obj 163 298 pack f f;
#X obj 163 328 outlet;
#X msg 164 217 36;
#X obj 163 263 makenote 100 250;
#X obj 164 161 sel 2 6 10 15;
#X connect 0 0 2 0;
#X connect 1 1 7 0;
#X connect 2 0 1 0;
#X connect 3 0 4 0;
#X connect 5 0 6 0;
#X connect 6 0 3 0;
#X connect 6 1 3 1;
#X connect 7 0 5 0;
#X connect 7 1 5 0;
#X connect 7 2 5 0;
#X connect 7 3 5 0;
