#N canvas 173 133 751 571 10;
#X obj 483 498 outlet~;
#N canvas 0 22 919 624 oscillators 0;
#X obj 143 242 mtof;
#X obj 104 21 inlet;
#X obj 163 329 blosc~ saw;
#X obj 204 559 outlet~;
#X obj 178 366 r \$1/saw-on;
#X obj 287 411 r \$1/square-on;
#X obj 272 328 phasor~;
#X obj 272 385 blosc~ comparator;
#X obj 272 357 -~ 0.5;
#X obj 163 392 *~;
#X obj 272 437 *~;
#X obj 327 301 / 254;
#X obj 327 327 + 0.5;
#X obj 228 125 inlet~ lfo;
#X obj 228 204 *~;
#X obj 303 127 r \$1/lfo-osc;
#X obj 163 289 +~;
#X obj 303 157 expr pow($f1/127 \, 2)*200;
#X obj 104 70 route 0;
#X msg 104 47 \$2 \$1;
#X msg 143 213 \$2;
#X obj 228 234 *~;
#X obj 509 14 r \$1/lfo-del;
#X obj 494 124 f;
#X obj 494 212 vline~;
#X obj 509 82 expr pow($f1/127 \, 2)*2000;
#X obj 509 46 t f f;
#X obj 494 153 pack f f;
#X msg 494 177 0 0 \, 1 \$2 \$1;
#X obj 650 291 noise~;
#X obj 727 260 r \$1/noise;
#X obj 650 384 *~;
#X obj 727 350 line~;
#X msg 727 321 \$1 20;
#X obj 727 292 expr pow($f1/127 \, 2);
#X obj 327 272 r \$1/pwm;
#X obj 143 102 t l b;
#X connect 0 0 16 0;
#X connect 1 0 19 0;
#X connect 2 0 9 0;
#X connect 4 0 9 1;
#X connect 5 0 10 1;
#X connect 6 0 8 0;
#X connect 7 0 10 0;
#X connect 8 0 7 0;
#X connect 9 0 3 0;
#X connect 10 0 3 0;
#X connect 11 0 12 0;
#X connect 12 0 8 1;
#X connect 13 0 14 0;
#X connect 14 0 21 0;
#X connect 15 0 17 0;
#X connect 16 0 6 0;
#X connect 16 0 2 0;
#X connect 17 0 14 1;
#X connect 18 1 36 0;
#X connect 19 0 18 0;
#X connect 20 0 0 0;
#X connect 21 0 16 1;
#X connect 22 0 26 0;
#X connect 23 0 27 0;
#X connect 24 0 21 1;
#X connect 25 0 23 1;
#X connect 26 0 25 0;
#X connect 26 1 27 1;
#X connect 27 0 28 0;
#X connect 28 0 24 0;
#X connect 29 0 31 0;
#X connect 30 0 34 0;
#X connect 31 0 3 0;
#X connect 32 0 31 1;
#X connect 33 0 32 0;
#X connect 34 0 33 0;
#X connect 35 0 11 0;
#X connect 36 0 20 0;
#X connect 36 1 23 0;
#X restore 483 156 pd oscillators;
#X obj 528 325 r \$1/main;
#X obj 528 357 dbtorms;
#X obj 483 466 *~;
#X msg 525 389 \$1 20;
#X obj 523 421 line~;
#N canvas 63 22 1117 611 filter 0;
#X obj 56 30 inlet~;
#X obj 176 546 outlet~;
#X obj 176 509 moog~;
#X obj 282 12 inlet trigger;
#X obj 188 286 mtof;
#X obj 188 337 line~;
#X msg 188 311 \$1 20;
#X obj 308 428 line~;
#X msg 308 403 \$1 20;
#X obj 308 379 expr $f1/127*4;
#X obj 189 415 +~;
#X obj 495 85 r \$1/f-env;
#X obj 495 167 line~;
#X msg 495 141 \$1 20;
#X obj 388 223 *~;
#X obj 495 114 expr pow($f1/127 \, 2)*10000;
#X obj 210 45 r \$1/trk;
#X msg 282 70 \$2 \$1;
#X obj 282 95 route 0;
#X msg 321 118 \$2;
#X obj 188 261 +;
#X obj 201 234 t b f;
#X obj 210 84 / 127;
#X obj 280 182 *;
#X msg 388 85 \$2;
#X obj 388 114 d_env~ \$1/filt;
#X obj 602 161 inlet~ lfo;
#X obj 602 240 *~;
#X obj 943 63 r \$1/lfo-del;
#X obj 928 173 f;
#X obj 928 261 vline~;
#X obj 599 288 *~;
#X obj 677 163 r \$1/lfo-filt;
#X obj 943 131 expr pow($f1/127 \, 2)*2000;
#X obj 188 369 *~;
#X obj 531 319 expr~ pow(2 \, $v1);
#X obj 677 193 expr pow($f1/127 \, 2)*8;
#X obj 943 95 t f f;
#X obj 928 202 pack f f;
#X msg 928 226 0 0 \, 1 \$2 \$1;
#X obj 188 188 r \$1/cutoff;
#X obj 308 354 r \$1/resonance;
#X obj 280 154 t b f b;
#X obj 282 43 t l l;
#X connect 0 0 2 0;
#X connect 2 0 1 0;
#X connect 3 0 43 0;
#X connect 4 0 6 0;
#X connect 5 0 34 0;
#X connect 6 0 5 0;
#X connect 7 0 2 2;
#X connect 8 0 7 0;
#X connect 9 0 8 0;
#X connect 10 0 2 1;
#X connect 11 0 15 0;
#X connect 12 0 14 1;
#X connect 13 0 12 0;
#X connect 14 0 10 1;
#X connect 15 0 13 0;
#X connect 16 0 22 0;
#X connect 17 0 18 0;
#X connect 18 1 19 0;
#X connect 19 0 42 0;
#X connect 20 0 4 0;
#X connect 21 0 20 0;
#X connect 21 1 20 1;
#X connect 22 0 23 0;
#X connect 23 0 21 0;
#X connect 24 0 25 0;
#X connect 25 0 14 0;
#X connect 26 0 27 0;
#X connect 27 0 31 0;
#X connect 28 0 37 0;
#X connect 29 0 38 0;
#X connect 30 0 31 1;
#X connect 31 0 35 0;
#X connect 32 0 36 0;
#X connect 33 0 29 1;
#X connect 34 0 10 0;
#X connect 35 0 34 1;
#X connect 36 0 27 1;
#X connect 37 0 33 0;
#X connect 37 1 38 1;
#X connect 38 0 39 0;
#X connect 39 0 30 0;
#X connect 40 0 20 0;
#X connect 41 0 9 0;
#X connect 42 0 23 0;
#X connect 42 1 23 1;
#X connect 42 2 29 0;
#X connect 43 0 17 0;
#X connect 43 1 24 0;
#X restore 483 236 pd filter;
#X obj 483 22 inlet note;
#N canvas 116 117 688 600 amp 0;
#X obj 103 63 inlet~;
#X obj 101 508 outlet~;
#X obj 371 72 inlet trigger;
#X msg 371 124 \$2;
#X obj 99 288 *~;
#X obj 371 153 d_env~ \$1/amp;
#X connect 0 0 4 0;
#X connect 2 0 3 0;
#X connect 3 0 5 0;
#X connect 4 0 1 0;
#X connect 5 0 4 1;
#X restore 483 290 pd amp;
#X obj 483 118 t l l l;
#N canvas 614 317 450 300 lfo 0;
#X obj 68 174 outlet~;
#X obj 68 120 osc~ 1;
#X obj 67 49 r \$1/lfo-freq;
#X obj 67 86 expr pow($f1/127 \, 2)*20+.1;
#X connect 1 0 0 0;
#X connect 2 0 3 0;
#X connect 3 0 1 0;
#X restore 611 110 pd lfo;
#X obj 101 117 cnv 15 354 169 empty \$1/env-bg empty 6 12 0 14 -1 -1
0;
#X obj 102 118 cnv 15 116 111 empty \$1/env-bg Oscillators 6 12 0 14
-4034 -1 0;
#X obj 107 146 tgl 15 0 \$1/saw-on \$1/saw-on-r Saw 18 8 0 11 -262144
-1 -1 1 1;
#X obj 153 146 tgl 15 0 \$1/square-on \$1/square-on-r Square 18 8 0
11 -262144 -1 -1 1 1;
#X obj 220 118 cnv 15 116 167 empty \$1/env-bg Filter 6 12 0 14 -260097
-1 0;
#X obj 110 165 hsl 100 12 0 127 0 0 \$1/noise \$1/noise-r Noise 4 7
0 11 -262144 -1 -1 0 1;
#X obj 110 180 hsl 100 12 0 127 0 0 \$1/lfo-osc \$1/lfo-osc-r LFO 4
7 0 11 -262144 -1 -1 0 1;
#X obj 228 202 hsl 100 12 0 127 0 0 \$1/lfo-filt \$1/lfo-filt-r LFO
4 7 0 11 -262144 -1 -1 4800 1;
#X obj 228 157 hsl 100 12 0 127 0 0 \$1/resonance \$1/resonance-r Resonance
4 7 0 11 -262144 -1 -1 0 1;
#X obj 228 142 hsl 100 12 0 127 0 0 \$1/cutoff \$1/cutoff-r Cutoff
4 7 0 11 -262144 -1 -1 4000 1;
#X obj 228 187 hsl 100 12 0 127 0 0 \$1/f-env \$1/f-env-r Envelope
4 7 0 11 -262144 -1 -1 0 1;
#X obj 228 172 hsl 100 12 0 127 0 0 \$1/trk \$1/trk-r Tracking 4 7
0 11 -262144 -1 -1 6400 1;
#X obj 102 231 cnv 15 116 54 empty \$1/env-bg LFO 6 12 0 14 -257985
-1 0;
#X obj 109 254 hsl 100 12 0 127 0 0 \$1/lfo-freq \$1/lfo-freq-r Frequency
4 7 0 11 -262144 -1 -1 5800 1;
#X obj 109 269 hsl 100 12 0 127 0 0 \$1/lfo-del \$1/lfo-del-r Delay
4 7 0 11 -262144 -1 -1 5400 1;
#X obj 338 157 cnv 15 116 128 empty \$1/env-bg Amplifier 6 12 0 14
-260097 -1 0;
#X obj 346 180 hsl 100 26 0 127 0 0 \$1/main \$1/main-r Volume 6 13
0 14 -257985 -1 -1 5900 1;
#X obj 338 118 cnv 15 116 37 empty empty Let's 6 10 0 11 -4032 -1 0
;
#X obj 384 118 cnv 15 15 15 empty empty build 6 10 0 11 -4032 -1 0
;
#X obj 338 134 cnv 15 15 15 empty empty a 6 10 0 11 -4032 -1 0;
#X obj 354 134 cnv 15 15 15 empty empty monosynth! 6 10 0 11 -4032
-1 0;
#X obj 110 195 hsl 100 12 0 127 0 0 \$1/pwm \$1/pwm-r PWM 4 7 0 11
-262144 -1 -1 0 1;
#X obj 223 220 d_env-g \$1/filt;
#X obj 341 220 d_env-g \$1/amp;
#X obj 107 211 hradio 15 1 0 3 \$1/octave \$1/octave-r Octave 50 8
0 10 -262144 -1 -1 1;
#X obj 483 46 unpack f f;
#X obj 483 93 pack f f;
#X obj 572 47 expr $f1*12-12;
#X obj 572 23 r \$1/octave;
#X obj 483 69 +;
#X obj 176 357 loadbang;
#X msg 176 383 1;
#X obj 176 409 s \$1/octave-r;
#X connect 1 0 7 0;
#X connect 2 0 3 0;
#X connect 3 0 5 0;
#X connect 4 0 0 0;
#X connect 5 0 6 0;
#X connect 6 0 4 1;
#X connect 7 0 9 0;
#X connect 8 0 37 0;
#X connect 9 0 4 0;
#X connect 10 0 1 0;
#X connect 10 1 9 1;
#X connect 10 2 7 1;
#X connect 11 0 1 1;
#X connect 11 0 7 2;
#X connect 37 0 41 0;
#X connect 37 1 38 1;
#X connect 38 0 10 0;
#X connect 39 0 41 1;
#X connect 40 0 39 0;
#X connect 41 0 38 0;
#X connect 42 0 43 0;
#X connect 43 0 44 0;
#X coords 0 -1 1 1 356 188 1 100 100;
