#N canvas 717 253 987 714 10;
#N canvas 258 68 817 412 OSC 0;
#X obj 87 114 OSCroute \$1;
#X obj 87 53 r sn_global;
#X obj 87 185 s \$1-go;
#X obj 138 215 s \$1-tempo;
#X obj 189 188 s \$1-ticks;
#X obj 240 215 s \$1-beats;
#X obj 329 216 sel tempo;
#X obj 329 348 s sn_global;
#X obj 400 217 r \$1-tempo;
#X obj 329 269 f;
#X obj 329 192 symbol;
#X obj 87 149 OSCroute /go /set_tempo /ticks /beats /canhas;
#X msg 329 293 /pulse/tempo \$1;
#X connect 0 0 11 0;
#X connect 1 0 0 0;
#X connect 6 0 9 0;
#X connect 8 0 9 0;
#X connect 9 0 12 0;
#X connect 10 0 6 0;
#X connect 11 0 2 0;
#X connect 11 1 3 0;
#X connect 11 2 4 0;
#X connect 11 3 5 0;
#X connect 11 4 10 0;
#X connect 12 0 7 0;
#X restore 102 279 pd OSC;
#N canvas 354 443 338 202 inits 0;
#X obj 51 36 loadbang;
#X obj 50 63 t b b b;
#X obj 126 100 \$2;
#X obj 183 99 \$3;
#X obj 128 131 s \$1/beats-r;
#X obj 219 132 s \$1/ticks-r;
#X msg 39 96 4;
#X obj 39 131 s \$1/octave/r;
#X connect 0 0 1 0;
#X connect 1 0 6 0;
#X connect 1 1 2 0;
#X connect 1 2 3 0;
#X connect 2 0 4 0;
#X connect 3 0 5 0;
#X connect 6 0 7 0;
#X restore 101 316 pd inits;
#X obj 101 119 cnv 15 138 98 empty empty empty 20 12 0 14 -204786 -66577
0;
#X obj 110 129 tgl 20 0 \$1/on \$1/on-r On 24 10 0 14 -262144 -1 -1
1 1;
#X obj 486 53 keyname;
#X obj 536 184 sel a s d f g h j k l;
#X msg 536 227 0;
#X msg 572 228 2;
#X msg 610 229 4;
#X msg 649 229 5;
#X msg 687 229 7;
#X msg 732 230 9;
#X msg 768 230 11;
#X msg 803 230 12;
#X obj 671 263 sel w e t y u o;
#X msg 671 306 1;
#X msg 707 307 3;
#X msg 745 308 6;
#X msg 784 308 8;
#X obj 458 228 spigot;
#X obj 490 158 r \$1/on;
#X obj 583 489 + 48;
#X obj 494 550 pack f f;
#X obj 108 185 hradio 15 1 0 8 \$1/octave \$1/octave/r Octave 0 -8
0 13 -262144 -1 -1 4;
#X obj 759 365 r \$1/octave;
#X obj 760 409 * 12;
#X msg 500 596 \$2 \$1;
#X obj 504 627 outlet;
#X obj 478 374 * 100;
#X connect 4 0 19 0;
#X connect 4 1 5 0;
#X connect 5 0 6 0;
#X connect 5 1 7 0;
#X connect 5 2 8 0;
#X connect 5 3 9 0;
#X connect 5 4 10 0;
#X connect 5 5 11 0;
#X connect 5 6 12 0;
#X connect 5 7 13 0;
#X connect 5 9 14 0;
#X connect 6 0 21 0;
#X connect 7 0 21 0;
#X connect 8 0 21 0;
#X connect 9 0 21 0;
#X connect 10 0 21 0;
#X connect 11 0 21 0;
#X connect 12 0 21 0;
#X connect 13 0 21 0;
#X connect 14 0 15 0;
#X connect 14 1 16 0;
#X connect 14 2 17 0;
#X connect 14 3 18 0;
#X connect 15 0 21 0;
#X connect 16 0 21 0;
#X connect 17 0 21 0;
#X connect 18 0 21 0;
#X connect 19 0 28 0;
#X connect 20 0 19 1;
#X connect 21 0 22 1;
#X connect 22 0 26 0;
#X connect 24 0 25 0;
#X connect 25 0 21 1;
#X connect 26 0 27 0;
#X connect 28 0 22 0;
#X coords 0 -1 1 1 140 120 1 100 100;
