#N canvas 527 22 407 367 10;
#X obj 58 269 outlet;
#X obj 108 118 tgl 15 0 empty empty empty 17 7 0 10 -262144 -1 -1 0
1;
#X obj 138 118 tgl 15 0 empty empty empty 17 7 0 10 -262144 -1 -1 0
1;
#X obj 168 118 tgl 15 0 empty empty empty 17 7 0 10 -262144 -1 -1 0
1;
#X obj 198 118 tgl 15 0 empty empty empty 17 7 0 10 -262144 -1 -1 0
1;
#X obj 58 189 notein \$1;
#X obj 58 213 pack f f;
#X obj 58 238 spigot;
#X obj 128 269 outlet;
#X obj 128 238 spigot;
#X obj 198 269 outlet;
#X obj 198 238 spigot;
#X obj 268 269 outlet;
#X obj 268 238 spigot;
#X connect 1 0 7 1;
#X connect 2 0 9 1;
#X connect 3 0 11 1;
#X connect 4 0 13 1;
#X connect 5 0 6 0;
#X connect 5 1 6 1;
#X connect 6 0 7 0;
#X connect 6 0 9 0;
#X connect 6 0 11 0;
#X connect 6 0 13 0;
#X connect 7 0 0 0;
#X connect 9 0 8 0;
#X connect 11 0 10 0;
#X connect 13 0 12 0;
#X coords 0 -1 1 1 120 40 1 100 100;
