#N canvas 359 133 626 462 10;
#X obj 104 117 hsl 113 30 0 127 0 0 \$1/volume \$1/volume-r Volume
8 16 0 16 -257985 -1 -1 6500 1;
#X obj 268 63 inlet~;
#X obj 268 289 dac~;
#X obj 268 260 hip~ 10;
#X obj 297 192 line~;
#X msg 297 163 \$1 20;
#X obj 268 231 *~;
#X obj 297 95 r \$1/volume;
#X obj 297 125 fadtorms;
#X obj 250 315 outlet~;
#X connect 1 0 6 0;
#X connect 3 0 2 0;
#X connect 3 0 2 1;
#X connect 3 0 9 0;
#X connect 4 0 6 1;
#X connect 5 0 4 0;
#X connect 6 0 3 0;
#X connect 7 0 8 0;
#X connect 8 0 5 0;
#X coords 0 -1 1 1 120 48 1 100 100;
