#N canvas 527 22 647 687 10;
#X obj 306 182 f;
#X obj 342 182 + 1;
#X obj 244 143 t b b;
#X obj 306 295 random 100;
#X obj 306 259 t b f;
#X obj 306 324 <;
#X obj 306 352 sel 1;
#X obj 306 406 random 12;
#X obj 306 432 + 36;
#X obj 306 380 t b b;
#X msg 415 289 0;
#X obj 306 222 / 50;
#N canvas 649 185 450 300 OSC 0;
#X obj 36 31 r globalOSC;
#X obj 36 56 OSCroute /rhythm;
#X obj 36 121 s \$1/ticklength;
#X obj 136 144 s \$1/tick;
#X obj 136 121 b;
#X obj 36 88 OSCroute /ticklength /tick;
#X connect 0 0 1 0;
#X connect 1 0 5 0;
#X connect 4 0 3 0;
#X connect 5 0 2 0;
#X connect 5 1 4 0;
#X restore 441 159 pd OSC;
#X obj 244 116 r \$1/tick;
#X obj 244 183 s \$0/go;
#X obj 306 457 s \$0/base;
#N canvas 0 22 451 492 makem 0;
#X obj 98 86 random 5;
#X obj 98 113 t b f;
#X obj 98 179 packel;
#X msg 98 146 0 7 12 16 19;
#X obj 189 146 + 1;
#X obj 98 265 + 48;
#X obj 98 324 makenote 100 250;
#X obj 98 413 outlet;
#X obj 98 383 pack f f;
#X obj 191 294 r \$1/ticklength;
#X obj 98 59 r \$0/go;
#X obj 290 57 r \$0/base;
#X obj 377 65 inlet;
#X obj 98 292 spigot;
#X connect 0 0 1 0;
#X connect 1 0 3 0;
#X connect 1 1 4 0;
#X connect 2 0 5 0;
#X connect 3 0 2 0;
#X connect 4 0 2 1;
#X connect 5 0 13 0;
#X connect 6 0 8 0;
#X connect 6 1 8 1;
#X connect 8 0 7 0;
#X connect 9 0 6 2;
#X connect 10 0 0 0;
#X connect 11 0 5 1;
#X connect 12 0 13 1;
#X connect 13 0 6 0;
#X restore 30 406 pd makem;
#X obj 30 437 outlet;
#X obj 108 118 tgl 15 0 empty empty empty 17 7 0 10 -262144 -1 -1 0
1;
#X obj 138 118 tgl 15 0 empty empty empty 17 7 0 10 -262144 -1 -1 0
1;
#X obj 168 118 tgl 15 0 empty empty empty 17 7 0 10 -262144 -1 -1 0
1;
#X obj 198 118 tgl 15 0 empty empty empty 17 7 0 10 -262144 -1 -1 0
1;
#N canvas 0 22 451 492 makem 0;
#X obj 98 86 random 5;
#X obj 98 113 t b f;
#X obj 98 179 packel;
#X msg 98 146 0 7 12 16 19;
#X obj 189 146 + 1;
#X obj 98 265 + 48;
#X obj 98 324 makenote 100 250;
#X obj 98 413 outlet;
#X obj 98 383 pack f f;
#X obj 191 294 r \$1/ticklength;
#X obj 98 59 r \$0/go;
#X obj 290 57 r \$0/base;
#X obj 377 65 inlet;
#X obj 98 292 spigot;
#X connect 0 0 1 0;
#X connect 1 0 3 0;
#X connect 1 1 4 0;
#X connect 2 0 5 0;
#X connect 3 0 2 0;
#X connect 4 0 2 1;
#X connect 5 0 13 0;
#X connect 6 0 8 0;
#X connect 6 1 8 1;
#X connect 8 0 7 0;
#X connect 9 0 6 2;
#X connect 10 0 0 0;
#X connect 11 0 5 1;
#X connect 12 0 13 1;
#X connect 13 0 6 0;
#X restore 100 406 pd makem;
#X obj 100 437 outlet;
#N canvas 0 22 451 492 makem 0;
#X obj 98 86 random 5;
#X obj 98 113 t b f;
#X obj 98 179 packel;
#X msg 98 146 0 7 12 16 19;
#X obj 189 146 + 1;
#X obj 98 265 + 48;
#X obj 98 324 makenote 100 250;
#X obj 98 413 outlet;
#X obj 98 383 pack f f;
#X obj 191 294 r \$1/ticklength;
#X obj 98 59 r \$0/go;
#X obj 290 57 r \$0/base;
#X obj 377 65 inlet;
#X obj 98 292 spigot;
#X connect 0 0 1 0;
#X connect 1 0 3 0;
#X connect 1 1 4 0;
#X connect 2 0 5 0;
#X connect 3 0 2 0;
#X connect 4 0 2 1;
#X connect 5 0 13 0;
#X connect 6 0 8 0;
#X connect 6 1 8 1;
#X connect 8 0 7 0;
#X connect 9 0 6 2;
#X connect 10 0 0 0;
#X connect 11 0 5 1;
#X connect 12 0 13 1;
#X connect 13 0 6 0;
#X restore 170 406 pd makem;
#X obj 170 437 outlet;
#N canvas 0 22 451 492 makem 0;
#X obj 98 86 random 5;
#X obj 98 113 t b f;
#X obj 98 179 packel;
#X msg 98 146 0 7 12 16 19;
#X obj 189 146 + 1;
#X obj 98 265 + 48;
#X obj 98 324 makenote 100 250;
#X obj 98 413 outlet;
#X obj 98 383 pack f f;
#X obj 191 294 r \$1/ticklength;
#X obj 98 59 r \$0/go;
#X obj 290 57 r \$0/base;
#X obj 377 65 inlet;
#X obj 98 292 spigot;
#X connect 0 0 1 0;
#X connect 1 0 3 0;
#X connect 1 1 4 0;
#X connect 2 0 5 0;
#X connect 3 0 2 0;
#X connect 4 0 2 1;
#X connect 5 0 13 0;
#X connect 6 0 8 0;
#X connect 6 1 8 1;
#X connect 8 0 7 0;
#X connect 9 0 6 2;
#X connect 10 0 0 0;
#X connect 11 0 5 1;
#X connect 12 0 13 1;
#X connect 13 0 6 0;
#X restore 240 406 pd makem;
#X obj 240 437 outlet;
#X connect 0 0 1 0;
#X connect 0 0 11 0;
#X connect 1 0 0 1;
#X connect 2 0 14 0;
#X connect 2 1 0 0;
#X connect 3 0 5 0;
#X connect 4 0 3 0;
#X connect 4 1 5 1;
#X connect 5 0 6 0;
#X connect 6 0 9 0;
#X connect 7 0 8 0;
#X connect 8 0 15 0;
#X connect 9 0 7 0;
#X connect 9 1 10 0;
#X connect 10 0 0 1;
#X connect 11 0 4 0;
#X connect 13 0 2 0;
#X connect 16 0 17 0;
#X connect 18 0 16 0;
#X connect 19 0 22 0;
#X connect 20 0 24 0;
#X connect 21 0 26 0;
#X connect 22 0 23 0;
#X connect 24 0 25 0;
#X connect 26 0 27 0;
#X coords 0 -1 1 1 120 40 1 100 100;
